<svg xmlns="http://www.w3.org/2000/svg" xmlns:xlink="http://www.w3.org/1999/xlink" width="48" height="48" viewBox="0 0 48 48">
    <defs>
        <style>
        .cls-1, .cls-5 {
          fill: none;
        }
  
        .cls-2 {
          clip-path: url(#clip-path);
        }
  
        .cls-3, .cls-7 {
          fill: #131514;
        }
  
        .cls-4 {
          clip-path: url(#clip-path-2);
        }
  
        .cls-5 {
          stroke: #131514;
          stroke-miterlimit: 2.61;
          stroke-width: 0.03px;
        }
  
        .cls-6 {
          fill: #fad315;
        }
  
        .cls-6, .cls-7 {
          fill-rule: evenodd;
        }
      </style>
        <clipPath id="clip-path">
            <rect class="cls-1" y="3.01" width="48" height="41.98" />
        </clipPath>
        <clipPath id="clip-path-2">
            <rect class="cls-1" y="3.01" width="48" height="41.98" />
        </clipPath>
    </defs>
    <title>a</title>
    <g id="Piktogramme_Symbole">
        <g id="meteoriteneinschlag">
            <g class="cls-2">
                <polygon class="cls-3" points="23.76 3.04 23.51 3.11 23.3 3.22 23.09 3.36 22.94 3.51 22.8 3.72 0.21 42.88 0.1 43.11 0.03 43.34 0.02 43.58 0.03 43.82 0.1 44.07 0.21 44.28 0.35 44.48 0.5 44.64 0.71 44.78 0.92 44.89 1.16 44.96 1.41 44.97 46.59 44.97 46.84 44.96 47.06 44.89 47.29 44.78 47.48 44.64 47.65 44.48 47.79 44.28 47.9 44.07 47.97 43.82 47.98 43.58 47.97 43.34 47.9 43.11 47.79 42.88 25.2 3.72 25.06 3.51 24.89 3.36 24.7 3.22 24.47 3.11 24.24 3.04 24 3.03 23.76 3.04" />
                <g class="cls-4">
                    <polygon class="cls-5" points="47.79 42.88 25.2 3.72 25.06 3.51 24.89 3.36 24.7 3.22 24.47 3.11 24.25 3.04 24 3.03 23.76 3.04 23.51 3.11 23.3 3.22 23.09 3.36 22.94 3.51 22.8 3.72 0.21 42.88 0.1 43.11 0.03 43.34 0.01 43.58 0.03 43.82 0.1 44.07 0.21 44.28 0.35 44.49 0.5 44.64 0.71 44.78 0.92 44.89 1.16 44.95 1.41 44.97 46.59 44.97 46.84 44.95 47.06 44.89 47.29 44.78 47.48 44.64 47.65 44.49 47.79 44.28 47.9 44.07 47.97 43.82 47.98 43.58 47.97 43.34 47.9 43.11 47.79 42.88" />
                </g>
                <polygon class="cls-6" points="24 7.39 44.02 42.1 3.98 42.1 24 7.39" />
                <g class="cls-4">
                    <path class="cls-7" d="M24,34.83a2.31,2.31,0,1,0,2.31,2.31A2.31,2.31,0,0,0,24,34.83" />
                    <path class="cls-7" d="M24,16.12a3.52,3.52,0,0,0-2.56,1.2,2.68,2.68,0,0,0-.73,2.05L22.41,32a1.58,1.58,0,1,0,3.16,0l1.72-12.59a2.68,2.68,0,0,0-.74-2A3.49,3.49,0,0,0,24,16.12" />
                </g>
            </g>
        </g>
    </g>
</svg>